<mxfile host="app.diagrams.net" agent="Mozilla/5.0 (Windows NT 10.0; Win64; x64) AppleWebKit/537.36 (KHTML, like Gecko) Chrome/134.0.0.0 Safari/537.36" version="26.1.1">
  <diagram name="Page-1" id="bVN-BTXgs4-LIsPQ-F6y">
    <mxGraphModel dx="1143" dy="655" grid="1" gridSize="10" guides="1" tooltips="1" connect="1" arrows="1" fold="1" page="1" pageScale="1" pageWidth="850" pageHeight="1100" math="0" shadow="0">
      <root>
        <mxCell id="0" />
        <mxCell id="1" parent="0" />
        <mxCell id="M4lZQbLb5EVjJYsRnXou-1" value="" style="rounded=0;whiteSpace=wrap;html=1;" parent="1" vertex="1">
          <mxGeometry x="120" y="160" width="80" height="40" as="geometry" />
        </mxCell>
        <mxCell id="M4lZQbLb5EVjJYsRnXou-2" value="LPF" style="text;html=1;align=center;verticalAlign=middle;whiteSpace=wrap;rounded=0;fontSize=20;" parent="1" vertex="1">
          <mxGeometry x="120" y="160" width="80" height="40" as="geometry" />
        </mxCell>
        <mxCell id="M4lZQbLb5EVjJYsRnXou-4" value="" style="endArrow=classic;html=1;rounded=0;exitX=1;exitY=0.5;exitDx=0;exitDy=0;" parent="1" source="ymDHxrED0Lm1aaIYFBX5-5" edge="1">
          <mxGeometry width="50" height="50" relative="1" as="geometry">
            <mxPoint x="270.00000000001296" y="180" as="sourcePoint" />
            <mxPoint x="320" y="180" as="targetPoint" />
          </mxGeometry>
        </mxCell>
        <mxCell id="ymDHxrED0Lm1aaIYFBX5-2" value="" style="endArrow=classic;html=1;rounded=0;exitX=1;exitY=0.5;exitDx=0;exitDy=0;entryX=0;entryY=0.5;entryDx=0;entryDy=0;" edge="1" parent="1" source="M4lZQbLb5EVjJYsRnXou-1" target="ymDHxrED0Lm1aaIYFBX5-5">
          <mxGeometry width="50" height="50" relative="1" as="geometry">
            <mxPoint x="200" y="160" as="sourcePoint" />
            <mxPoint x="270" y="140" as="targetPoint" />
          </mxGeometry>
        </mxCell>
        <mxCell id="ymDHxrED0Lm1aaIYFBX5-3" value="" style="rounded=0;whiteSpace=wrap;html=1;" vertex="1" parent="1">
          <mxGeometry x="40" y="280" width="40" height="40" as="geometry" />
        </mxCell>
        <mxCell id="ymDHxrED0Lm1aaIYFBX5-5" value="" style="shape=orEllipse;perimeter=ellipsePerimeter;whiteSpace=wrap;html=1;backgroundOutline=1;" vertex="1" parent="1">
          <mxGeometry x="250" y="170" width="20" height="20" as="geometry" />
        </mxCell>
        <mxCell id="ymDHxrED0Lm1aaIYFBX5-6" value="" style="shape=sumEllipse;perimeter=ellipsePerimeter;whiteSpace=wrap;html=1;backgroundOutline=1;" vertex="1" parent="1">
          <mxGeometry x="160" y="400" width="20" height="20" as="geometry" />
        </mxCell>
        <mxCell id="ymDHxrED0Lm1aaIYFBX5-7" value="&lt;font style=&quot;font-size: 20px;&quot;&gt;z&lt;sup style=&quot;&quot;&gt;-1&lt;/sup&gt;&lt;/font&gt;" style="text;html=1;align=center;verticalAlign=middle;whiteSpace=wrap;rounded=0;" vertex="1" parent="1">
          <mxGeometry x="40" y="280" width="40" height="40" as="geometry" />
        </mxCell>
        <mxCell id="ymDHxrED0Lm1aaIYFBX5-10" value="" style="endArrow=classic;html=1;rounded=0;exitX=1;exitY=0.5;exitDx=0;exitDy=0;" edge="1" parent="1">
          <mxGeometry width="50" height="50" relative="1" as="geometry">
            <mxPoint x="80" y="299.58" as="sourcePoint" />
            <mxPoint x="240" y="299.58" as="targetPoint" />
          </mxGeometry>
        </mxCell>
        <mxCell id="ymDHxrED0Lm1aaIYFBX5-8" value="" style="triangle;whiteSpace=wrap;html=1;" vertex="1" parent="1">
          <mxGeometry x="120" y="290" width="20" height="20" as="geometry" />
        </mxCell>
      </root>
    </mxGraphModel>
  </diagram>
</mxfile>
